<?xml version="1.0" encoding="utf-8"?>
<!-- Generator: Adobe Illustrator 22.0.1, SVG Export Plug-In . SVG Version: 6.00 Build 0)  -->
<svg version="1.1" id="Layer_1" xmlns="http://www.w3.org/2000/svg" xmlns:xlink="http://www.w3.org/1999/xlink" x="0px" y="0px"
	 viewBox="0 0 70 70" style="enable-background:new 0 0 70 70;" xml:space="preserve">
<style type="text/css">
	.st0{clip-path:url(#SVGID_2_);}
	.st1{opacity:0.75;clip-path:url(#SVGID_4_);}
	.st2{clip-path:url(#SVGID_6_);fill:#C0C4C9;}
</style>
<g>
	<defs>
		<rect id="SVGID_1_" x="12.9" y="14" width="45.1" height="42.9"/>
	</defs>
	<clipPath id="SVGID_2_">
		<use xlink:href="#SVGID_1_"  style="overflow:visible;"/>
	</clipPath>
	<g class="st0">
		<defs>
			<rect id="SVGID_3_" x="12.9" y="14" width="45.1" height="42.9"/>
		</defs>
		<clipPath id="SVGID_4_">
			<use xlink:href="#SVGID_3_"  style="overflow:visible;"/>
		</clipPath>
		<g class="st1">
			<g>
				<defs>
					<rect id="SVGID_5_" x="-7.3" y="-1.5" width="85.6" height="59.6"/>
				</defs>
				<clipPath id="SVGID_6_">
					<use xlink:href="#SVGID_5_"  style="overflow:visible;"/>
				</clipPath>
				<path class="st2" d="M19.4,15.1c0-0.6-0.5-1.1-1.1-1.1c-0.6,0-1.1,0.5-1.1,1.1v18.2h2.1V15.1z"/>
				<path class="st2" d="M17.2,55.9c0,0.6,0.5,1.1,1.1,1.1c0.6,0,1.1-0.5,1.1-1.1V39.8h-2.1V55.9z"/>
				<path class="st2" d="M17.2,34.4c-1.2,0-2.1,1-2.1,2.1s1,2.1,2.1,2.1h2.1c1.2,0,2.1-1,2.1-2.1s-1-2.1-2.1-2.1H17.2z M19.4,40.8
					h-2.1c-2.4,0-4.3-1.9-4.3-4.3s1.9-4.3,4.3-4.3h2.1c2.4,0,4.3,1.9,4.3,4.3S21.7,40.8,19.4,40.8"/>
				<path class="st2" d="M36.5,15.1c0-0.6-0.5-1.1-1.1-1.1c-0.6,0-1.1,0.5-1.1,1.1v25.8h2.1V15.1z"/>
				<path class="st2" d="M34.4,55.9c0,0.6,0.5,1.1,1.1,1.1c0.6,0,1.1-0.5,1.1-1.1v-8.6h-2.1V55.9z"/>
				<path class="st2" d="M34.4,41.9c-1.2,0-2.1,1-2.1,2.1s1,2.1,2.1,2.1h2.1c1.2,0,2.1-1,2.1-2.1s-1-2.1-2.1-2.1H34.4z M36.5,48.3
					h-2.1c-2.4,0-4.3-1.9-4.3-4.3s1.9-4.3,4.3-4.3h2.1c2.4,0,4.3,1.9,4.3,4.3S38.9,48.3,36.5,48.3"/>
				<path class="st2" d="M53.7,15.1c0-0.6-0.5-1.1-1.1-1.1c-0.6,0-1.1,0.5-1.1,1.1v8.6h2.1V15.1z"/>
				<path class="st2" d="M51.6,55.9c0,0.6,0.5,1.1,1.1,1.1c0.6,0,1.1-0.5,1.1-1.1V30.1h-2.1V55.9z"/>
				<path class="st2" d="M51.6,24.7c-1.2,0-2.1,1-2.1,2.1c0,1.2,1,2.1,2.1,2.1h2.1c1.2,0,2.1-1,2.1-2.1c0-1.2-1-2.1-2.1-2.1H51.6z
					 M53.7,31.2h-2.1c-2.4,0-4.3-1.9-4.3-4.3s1.9-4.3,4.3-4.3h2.1c2.4,0,4.3,1.9,4.3,4.3S56.1,31.2,53.7,31.2"/>
			</g>
		</g>
	</g>
</g>
</svg>
