<?xml version="1.0" encoding="utf-8"?>
<!-- Generator: Adobe Illustrator 22.0.1, SVG Export Plug-In . SVG Version: 6.00 Build 0)  -->
<svg version="1.1" id="Layer_1" xmlns="http://www.w3.org/2000/svg" xmlns:xlink="http://www.w3.org/1999/xlink" x="0px" y="0px"
	 viewBox="0 0 70 70" style="enable-background:new 0 0 70 70;" xml:space="preserve">
<style type="text/css">
	.st0{opacity:0.75;}
	.st1{fill:#C0C4C9;}
</style>
<g>
	<g>
		<g class="st0">
			<g>
				<path class="st1" d="M64.1,34.2c0-6.5-5.3-11.7-11.7-11.7c-6.5,0-11.7,5.3-11.7,11.7c0,6.4,5.2,11.7,11.7,11.7
					C58.9,45.9,64.1,40.6,64.1,34.2 M5.3,34.2c0,6.5,5.3,11.7,11.7,11.7c6.5,0,11.7-5.3,11.7-11.7c0-6.4-5.3-11.7-11.7-11.7
					C10.6,22.5,5.3,27.8,5.3,34.2 M3.2,34.1H1V32h2.4c0.8-4.4,3.2-7.7,7.1-9.9c2.4-1.4,5-1.9,7.8-1.6c6,0.5,10.9,4.9,12.3,10.8
					c2.8-1.3,5.6-1.4,8.4,0c0.1-0.5,0.3-1,0.4-1.4c1.9-5.2,5.6-8.4,11-9.3c7.4-1.2,14.2,3.8,15.6,11.1c0,0.2,0.1,0.3,0.3,0.3
					c0.7,0,1.4,0,2.2,0v2.1h-2.2c0,0.6-0.1,1.2-0.1,1.8c-0.6,4.5-2.8,7.9-6.7,10.2c-7,4.1-15.8,1.4-19.4-5.8c-1-2-1.5-4.2-1.4-6.4
					c0-0.1-0.1-0.3-0.2-0.3c-2.2-1.5-5.3-1.5-7.5,0c-0.1,0.1-0.2,0.2-0.2,0.3c0,5.6-2.4,9.9-7.3,12.5c-7.4,4-16.4,0.5-19.4-7.3
					c-0.5-1.4-0.8-2.9-0.9-4.5C3.2,34.4,3.2,34.3,3.2,34.1"/>
			</g>
		</g>
	</g>
</g>
</svg>
