<?xml version="1.0" encoding="utf-8"?>
<!-- Generator: Adobe Illustrator 22.0.1, SVG Export Plug-In . SVG Version: 6.00 Build 0)  -->
<svg version="1.1" id="Layer_1" xmlns="http://www.w3.org/2000/svg" xmlns:xlink="http://www.w3.org/1999/xlink" x="0px" y="0px"
	 viewBox="0 0 257 161.8" style="enable-background:new 0 0 257 161.8;" xml:space="preserve">
<style type="text/css">
	.st0{fill:#FFFFFF;}
</style>
<g>
	<path class="st0" d="M217.5,53.8c-1.9,0-3.5-1.6-3.5-3.5c0-1.9,1.6-3.5,3.5-3.5c1.9,0,3.5,1.6,3.5,3.5
		C221,52.3,219.4,53.8,217.5,53.8 M217.5,46.4c-2.2,0-4,1.8-4,4c0,2.2,1.8,4,4,4c2.2,0,4-1.8,4-4C221.5,48.1,219.7,46.4,217.5,46.4"
		/>
	<path class="st0" d="M217.4,50.1h-0.8v-1.6h1.3c0.6,0,1.2,0.1,1.2,0.8C219,50.2,218,50.1,217.4,50.1 M219.6,49.3
		c0-0.4-0.2-0.8-0.5-1c-0.3-0.2-0.7-0.2-1.1-0.2H216v4.4h0.5v-2.1h1l1.3,2.1h0.6l-1.3-2.1C218.9,50.5,219.6,50.2,219.6,49.3"/>
	<path class="st0" d="M84.3,116l-25.9-12.7c-0.6-0.3-0.9-1-0.9-1.5l0.1-7c0-0.5,0.1-1,0.8-1.5c2.8-1.8,11.4-6.5,20.2-19.5
		c11.8-17.2,0-31.7-18.5-27.8C43.7,49.6,27,58.4,19.7,63.3c-6.5,4.3-5.6,9.5-5.7,14.2c0.4,2,1.1,1.8,2.7-0.2
		c12-11.1,30.3-19.5,33.7-21c3.4-1.4,11.5-6.3,21-4.1c9.1,2.1,6.9,14.5,4.1,19.7c-3,5.7-11.7,14.1-15.7,16.1c-1.5,0.8-2.1,0-2.1-1.3
		l0.6-27c0-1.8-0.8-2.6-2.6-2l-2.9,1.4c-2,1.2-1.9,1.6-2.1,3l-0.4,31.1c0,0.7-0.3,1.2-0.7,1.4l-9.4,5.3c-2.2,1.1-1.6,2.7,0,3.2
		l7.5,3.6c1.8,0.7,2.3,1.3,2.3,3l-0.3,15.1c6.7-1.3,7.2-4.6,7.3-6.7v-4.6c0.2-1.1,0.8-1.4,1.7-1.3L80.9,123c2,0.9,3,0.5,4.5-2
		C86.8,118.5,87,117.2,84.3,116"/>
	<path class="st0" d="M122.5,78c-3,1.8-4.4,5-3.2,7.1c1.2,2.1,4.8,2.4,7.9,0.7c3-1.8,4.4-4.9,3.2-7C129.1,76.7,125.5,76.2,122.5,78"
		/>
	<path class="st0" d="M80.8,97.8c-0.8,1.3-3,4.9-4.8,4.3c-1-0.5,0.3-4.1,1-5.4c1-1.9,3.9-4.9,5.2-4.1C83.4,93.3,81.6,96.4,80.8,97.8
		 M111.3,80.2c-0.8,1-2.4,4.1-3.3,6c-0.9,1.9-2.8,6.1-4.7,6.1c-2,0-2.2-4.9-2.2-6.7c0-1.8-1.1-2.1-1.6-2c-0.5,0.1-2.1,0.6-2.5,2.5
		c-0.4,1.9-2.9,10-5.6,10c-1.7,0-3-4.9-3-6.5c-0.1-1.5-0.8-2.8-2.3-2.8c-1.1,0-2.4,0.5-3,1.2c-0.5,0.6-0.6,1.6-3.5,1
		c-2.6-0.1-5.1,1.3-8.2,6.4c-1.8,3.1-3.3,8.8-0.5,11.1c2.6,2.2,7.2-1.7,8.5-3.3c1.3-1.6,2.5-2.8,3-3.7c0.5-0.9,1.1-0.8,1.3,0.1
		c0.3,0.9,1.8,4.4,3.8,4.3c2-0.1,4.5-1.6,7.4-6.8c0.5-1.1,1.3-1,1.5-0.1c0.2,0.9,1.3,3.9,3.3,3.9c1.9,0,4-3,5-4.8
		c0.7-1.2,1.8-0.6,1.8,0.5s-0.5,28.7-0.5,28.7c0,1.3,0.5,1.6,1.4,1.6h3.9c0.7,0,1.3-0.6,1.3-1.6l0.8-44.6
		C113.5,79.7,112.3,79,111.3,80.2"/>
	<path class="st0" d="M179.4,75.7c-0.8,1.3-2.6,4.3-4.5,3.7c-1-0.5,0.2-3.1,0.9-4.4c1-1.9,3.9-4.9,5.2-4.2
		C182.2,71.5,180.2,74.3,179.4,75.7 M217.4,70.3c-0.4,0.3-0.9,0.9-2.2,0.3c-2.2-0.9-2.4-5.1-3.6-9c-1-3.5-3.6-3.2-4.5-1.7l-2.7,4.4
		c-0.5,0.9-1.6,3-2.6,3c-1.3,0-0.7-1.8-0.6-3.6c0-1.2-0.7-2.7-2-2.7c-1.4,0-3,2.2-4.1,4.7c-0.8,1.8-2.9,8.5-5.6,8.5
		c-1.7,0-1.9-4.9-2-6.5c-0.1-1.5-0.6-3.4-2.2-3.4c-1,0-1.7,0.5-2.2,1.2c-0.5,0.6-0.6,1.2-2.5,0.9c-2.6-0.1-6.9,2.3-9.9,7.4
		c-1.8,3.1-4,9.5-1.3,11.8c2.6,2.2,7.3-2.9,8.6-4.5c1.3-1.6,2.5-2.8,3-3.7c0.5-0.9,1.1-0.8,1.3,0.1c0.3,0.9,1.8,4.4,3.8,4.3
		c2-0.1,3.6-0.5,6.5-5.7c0.5-1.1,1.5-1.2,1.7-0.3c0.2,0.9,0.4,3.3,2.2,3.3c3.2,0,6.9-7.9,7.8-9.7c0.8-1.6,2.1-1.2,2.6,0
		c0.6,1.7,1.2,7.3,4.7,7.3c3.5,0,5.9-3.7,6.6-4.9C219,70.7,218.6,69.2,217.4,70.3"/>
	<path class="st0" d="M162.1,71c0,0-7.6-5.6-9.8-8.1c-1.4-1.7-0.4-3,0.4-3.7c5.4-3.6,13.8-9.1,17.1-17.7c3.2-8.3-1.8-15.5-5.4-16.7
		c-4.9-1.6-15.3,1.6-20.5,11.3c-3.4,6.3-4.9,8.3-5.4,25.4c-0.1,3.2-0.2,6.9-0.2,10.9s-0.4,15-0.9,17c-1.7,4.8,3.4,2,5.7,0.1
		c2.3-1.9,2.2-4.7,2.2-5.9c0-1.5,0.1-28.4,0.9-34.4c0.5-3.7,1.1-10.7,5-16.7c3.9-6,8-3.6,9.1-2.6c1.1,1,2.6,3.5,1.8,8.6
		c-1.3,7.9-10.4,16.6-12.7,19.3c-2.3,2.7-1.8,5-0.4,6.9c1,1.3,3.3,3.9,5.7,6.4s2.2,4.6,1.8,6.2c-1.3,4.8-14.3,17.9-14.3,17.9
		c-2.8,3,0.1,7.8,1.1,9.4c1,1.6,2.2,1.1,3-0.3c3.2-6,17.1-20.5,17.1-20.5C167.4,78.7,165.7,73.7,162.1,71"/>
</g>
</svg>
