<?xml version="1.0" encoding="utf-8"?>
<!-- Generator: Adobe Illustrator 22.0.1, SVG Export Plug-In . SVG Version: 6.00 Build 0)  -->
<svg version="1.1" id="Layer_1" xmlns="http://www.w3.org/2000/svg" xmlns:xlink="http://www.w3.org/1999/xlink" x="0px" y="0px"
	 viewBox="0 0 70 70" style="enable-background:new 0 0 70 70;" xml:space="preserve">
<style type="text/css">
	.st0{clip-path:url(#SVGID_2_);}
	.st1{opacity:0.75;clip-path:url(#SVGID_4_);}
	.st2{clip-path:url(#SVGID_6_);fill:#C0C4C9;}
</style>
<g>
	<defs>
		<rect id="SVGID_1_" x="14.2" y="15" width="40.8" height="40.8"/>
	</defs>
	<clipPath id="SVGID_2_">
		<use xlink:href="#SVGID_1_"  style="overflow:visible;"/>
	</clipPath>
	<g class="st0">
		<defs>
			<rect id="SVGID_3_" x="14.2" y="15" width="40.8" height="40.8"/>
		</defs>
		<clipPath id="SVGID_4_">
			<use xlink:href="#SVGID_3_"  style="overflow:visible;"/>
		</clipPath>
		<g class="st1">
			<g>
				<defs>
					<rect id="SVGID_5_" x="-4.4" y="0.8" width="78" height="56.1"/>
				</defs>
				<clipPath id="SVGID_6_">
					<use xlink:href="#SVGID_5_"  style="overflow:visible;"/>
				</clipPath>
				<path class="st2" d="M34.9,41.6c-0.3,0-0.6-0.1-0.8-0.3l-6.7-6.7c-0.4-0.4-0.4-1.1,0-1.6c0.4-0.4,1.1-0.4,1.6,0l6.7,6.7
					c0.4,0.4,0.4,1.1,0,1.6C35.4,41.5,35.1,41.6,34.9,41.6"/>
				<path class="st2" d="M34.9,41.6c-0.3,0-0.6-0.1-0.8-0.3c-0.4-0.4-0.4-1.1,0-1.6l19-19c0.4-0.4,1.1-0.4,1.6,0
					c0.4,0.4,0.4,1.1,0,1.6l-19,19C35.4,41.5,35.1,41.6,34.9,41.6"/>
				<path class="st2" d="M34.6,55.8c-5.2,0-10.4-2-14.4-6c-3.9-3.9-6-9-6-14.4c0-5.4,2.1-10.6,6-14.4c3.9-3.9,9-6,14.4-6
					s10.6,2.1,14.4,6c0.4,0.4,0.4,1.1,0,1.6c-0.4,0.4-1.1,0.4-1.6,0c-3.4-3.4-8-5.3-12.9-5.3s-9.4,1.9-12.9,5.3
					c-3.4,3.4-5.3,8-5.3,12.9c0,4.9,1.9,9.4,5.3,12.9c7.1,7.1,18.6,7.1,25.7,0c3-3,4.8-6.9,5.2-11.1c0.4-4.1-0.7-8.3-3-11.8
					c-0.3-0.5-0.2-1.2,0.3-1.5c0.5-0.3,1.2-0.2,1.5,0.3c2.6,3.9,3.7,8.6,3.3,13.2c-0.4,4.7-2.5,9.1-5.9,12.5
					C45.1,53.8,39.8,55.8,34.6,55.8"/>
			</g>
		</g>
	</g>
</g>
</svg>
